# xmcd
#
# Track frame offsets:
#	150
#	19562
#	34427
#	46815
#	64057
#	74495
#	88775
#	106635
#	124015
#	138365
#	157857
#	177197
#	192135
#	204485
#	221770
#	232107
#	246367
#	264177
#	281540
#	296105
#
# Disc length: 4206 seconds
#
# Revision: 1
# Processed by: cddbd v1.5.1PL0 Copyright (c) Steve Scherf et al.
# Submitted via: CDex 1.50Beta5
#
DISCID=24106c14
DTITLE=井上杏美 - となりのトトロBOX
DYEAR=1994
DGENRE=
TTITLE0=井上杏美/となりのトトロ
TTITLE1=杉並児童合唱団/風のとおり道
TTITLE2=井上杏美/さんぽ
TTITLE3=井上杏美/まいご
TTITLE4=杉並児童合唱団/すすわたり
TTITLE5=北原拓/ねこバス
TTITLE6=森公美子/ふしぎしりとりうた
TTITLE7=井上杏美/おかあさん
TTITLE8=久石譲/小さな写真
TTITLE9=井上杏美/ドンドコまつり
TTITLE10=となりのトトロ
TTITLE11=風のとおり道
TTITLE12=さんぽ
TTITLE13=まいご
TTITLE14=すすわたり
TTITLE15=ねこバス
TTITLE16=ふしぎしりとりうた
TTITLE17=おかあさん
TTITLE18=小さな写真
TTITLE19=ドンドコまつり
EXTD=
EXTT0=
EXTT1=
EXTT2=
EXTT3=
EXTT4=
EXTT5=
EXTT6=
EXTT7=
EXTT8=
EXTT9=
EXTT10=
EXTT11=
EXTT12=
EXTT13=
EXTT14=
EXTT15=
EXTT16=
EXTT17=
EXTT18=
EXTT19=
PLAYORDER=
